<?xml version="1.0" standalone="no"?>
<!DOCTYPE svg PUBLIC "-//W3C//DTD SVG 20010904//EN"
 "http://www.w3.org/TR/2001/REC-SVG-20010904/DTD/svg10.dtd">
<svg version="1.0" xmlns="http://www.w3.org/2000/svg"
 width="748.000000pt" height="604.000000pt" viewBox="0 0 748.000000 604.000000"
 preserveAspectRatio="xMidYMid meet">
<metadata>
Created by potrace 1.16, written by Peter Selinger 2001-2019
</metadata>
<g transform="translate(0.000000,604.000000) scale(0.100000,-0.100000)"
fill="#000000" stroke="none">
<path d="M2009 4758 c-5 -14 -285 -3455 -282 -3460 2 -5 186 -8 409 -8 315 0
406 3 409 12 2 7 34 416 70 908 68 936 74 1014 82 1006 2 -2 166 -436 363
-963 l357 -958 329 -3 329 -2 344 942 c190 519 350 954 356 967 12 23 13 20
19 -35 3 -32 35 -462 71 -954 36 -492 68 -901 70 -908 3 -9 94 -12 409 -12
223 0 407 3 409 8 3 5 -277 3445 -282 3460 -1 1 -219 2 -485 2 l-484 0 -15
-37 c-8 -21 -173 -463 -367 -983 -194 -520 -356 -949 -360 -953 -4 -4 -170
421 -370 945 -199 524 -369 970 -378 991 l-14 37 -494 0 c-272 0 -494 -1 -495
-2z"/>
</g>
</svg>
